<svg xmlns="http://www.w3.org/2000/svg" xmlns:xlink="http://www.w3.org/1999/xlink" viewBox="0 0 1639.2 823.2"><defs><linearGradient id="linear-gradient" x1="118.99" y1="436.24" x2="399.91" y2="382.26" gradientUnits="userSpaceOnUse"><stop offset="0.33" stop-color="#5a4af3"/><stop offset="0.4" stop-color="#5849ef"/><stop offset="0.48" stop-color="#5244e3"/><stop offset="0.55" stop-color="#473dcf"/><stop offset="0.62" stop-color="#3933b3"/><stop offset="0.7" stop-color="#26268f"/><stop offset="0.7" stop-color="#25258c"/></linearGradient></defs><g id="Secondary_Logo" data-name="Secondary Logo"><path d="M615.2,503a86.7,86.7,0,0,1-22.9-3.1,57.8,57.8,0,0,1-19.7-9.8,47.2,47.2,0,0,1-13.5-16.5,51,51,0,0,1-5-23.1c0-11.9,2.5-21.4,7.3-28.5a46.1,46.1,0,0,1,19.5-16.4,95.3,95.3,0,0,1,28.2-7.6,274.2,274.2,0,0,1,33.2-2h25.1a40.4,40.4,0,0,0-3.5-17,25.8,25.8,0,0,0-10.4-11.5c-4.6-2.8-10.6-4.1-17.8-4.1a49.3,49.3,0,0,0-13.4,1.8,30.4,30.4,0,0,0-10.7,5.1,14.7,14.7,0,0,0-5.6,8.6H559.1a55.9,55.9,0,0,1,9.2-24.9,59.1,59.1,0,0,1,18.2-17,83,83,0,0,1,23.9-9.8,114.4,114.4,0,0,1,26.9-3.1q38,0,56.1,21.6t18.2,61.2v93.8H670l-.7-22.5c-5.5,7.7-11.7,13.4-18.6,16.9a64.2,64.2,0,0,1-20,6.6A114.3,114.3,0,0,1,615.2,503Zm10.6-36.6a47.7,47.7,0,0,0,21.1-4.7,38.3,38.3,0,0,0,15.2-12.5,30.3,30.3,0,0,0,5.6-17.8v-4.3H636c-4.6,0-9.1.2-13.4.6a52.8,52.8,0,0,0-11.5,2.5A16.6,16.6,0,0,0,603,436c-2,2.6-3,6.2-3,10.6a17.4,17.4,0,0,0,3.5,11,19.6,19.6,0,0,0,9.4,6.6A38.4,38.4,0,0,0,625.8,466.4Z" fill="#0e0e4f"/><path d="M809,503a128.9,128.9,0,0,1-25.1-2.6,77.8,77.8,0,0,1-23.8-9.1,59.2,59.2,0,0,1-18.5-17.5q-7.5-11.1-9.9-27.6h46.9a22.6,22.6,0,0,0,7.1,10.3,33,33,0,0,0,11.9,6.2,49.4,49.4,0,0,0,13.7,2,57,57,0,0,0,9.2-.7,26.9,26.9,0,0,0,8.6-2.6,17.7,17.7,0,0,0,6.3-5.1,13.6,13.6,0,0,0,2.3-8.1,10.7,10.7,0,0,0-3.3-8.3,25.2,25.2,0,0,0-9.3-4.7c-3.9-1.2-8.4-2.4-13.5-3.5l-29-6.6c-10.4-2.4-19.3-5.9-26.8-10.6a52.2,52.2,0,0,1-8.2-7.2,35.7,35.7,0,0,1-6-8.9A60.8,60.8,0,0,1,738,388a49.6,49.6,0,0,1-1.3-11.8c0-9.4,2-17.5,6.1-24.2a49.2,49.2,0,0,1,16.3-16.4,73.9,73.9,0,0,1,22.8-9,115.7,115.7,0,0,1,25.7-2.8,93.9,93.9,0,0,1,33.1,5.7,58.8,58.8,0,0,1,25,17.9q9.9,12,12.3,31.2H833.7c-.9-4.9-3.8-8.8-8.9-11.8s-11.3-4.4-18.8-4.4a63.8,63.8,0,0,0-8.4.6,32,32,0,0,0-8.1,2.3,16.8,16.8,0,0,0-5.9,4.5,11.2,11.2,0,0,0-2.4,7.4,10.9,10.9,0,0,0,2.2,6.6,15.4,15.4,0,0,0,6.3,5,63.1,63.1,0,0,0,10,3.6c7.5,1.8,15,3.4,22.6,4.8s14.4,2.9,20.3,4.5a63.4,63.4,0,0,1,20,7.6,43.4,43.4,0,0,1,14.9,14.3c3.8,6.1,5.7,13.9,5.7,23.6s-2.2,20.1-6.6,27.2a47.8,47.8,0,0,1-17.6,17,82.1,82.1,0,0,1-24.1,9A135.4,135.4,0,0,1,809,503Z" fill="#0e0e4f"/><path d="M903.7,565.7v-239h43.2l2.4,21.8a64.5,64.5,0,0,1,24.2-18.8,74.3,74.3,0,0,1,30.2-5.9c17.2,0,31.4,3.9,42.6,11.8s19.6,18.7,25.3,32.2,8.4,28.7,8.4,45.4-2.9,32.5-8.8,46.1a71.9,71.9,0,0,1-26.2,32c-11.7,7.8-26.2,11.7-43.6,11.7a84.1,84.1,0,0,1-21.1-2.6,75.3,75.3,0,0,1-17.5-7.1,58.4,58.4,0,0,1-12.9-10.1v82.5Zm89.8-104.3c10.3,0,18.5-2.3,24.4-6.9a36.9,36.9,0,0,0,12.6-17.7,71.6,71.6,0,0,0-.4-46,37.3,37.3,0,0,0-13-18c-6.1-4.5-14.3-6.8-24.6-6.8s-17.1,2.3-23.4,6.8a43.2,43.2,0,0,0-14.6,17.6,56.2,56.2,0,0,0-4.9,23.5,57.6,57.6,0,0,0,4.8,23.4,40,40,0,0,0,14.5,17.5Q978.7,461.4,993.5,461.4Z" fill="#0e0e4f"/><path d="M1126.2,309.2c-8.6,0-15.5-2.6-20.8-7.7s-7.9-11.9-7.9-20,2.7-15.5,8.2-20.8,12.5-7.9,20.8-7.9a28.8,28.8,0,0,1,20,7.7q8.4,7.8,8.4,20.7c0,8.3-2.7,15.1-8.1,20.3S1134.5,309.2,1126.2,309.2Zm-23.1,191.5v-174h46.2v174Z" fill="#0e0e4f"/><path d="M1179.3,500.7v-174h41.6l3,20.8c4.4-6.6,9.3-11.6,14.8-15a52.7,52.7,0,0,1,17.2-6.9,92.1,92.1,0,0,1,18.2-1.8h7.9l5.3.2v44.5h-10.9c-10.4,0-19.4,1.8-27.1,5.3a37.6,37.6,0,0,0-17.6,16.5c-4.1,7.5-6.2,17.1-6.2,28.8v81.5Z" fill="#0e0e4f"/><path d="M1378.7,503c-18.3,0-33.8-3.6-46.5-10.9a72.5,72.5,0,0,1-29.4-30.9c-6.8-13.3-10.2-28.8-10.2-46.7s3.5-33.8,10.5-47.3a78.6,78.6,0,0,1,29.9-31.9c12.9-7.7,28.1-11.5,45.7-11.5q19.8,0,34.8,6.6a71.3,71.3,0,0,1,25.4,18.4,80,80,0,0,1,15.6,27.6,103.2,103.2,0,0,1,4.8,33.8c0,3.1-.2,6.1-.4,9a50,50,0,0,1-1.3,8.5H1338.4a48.4,48.4,0,0,0,5.6,18.2,34.1,34.1,0,0,0,13.1,13c5.6,3.2,12.6,4.8,20.9,4.8a60.3,60.3,0,0,0,15.2-1.8,30.1,30.1,0,0,0,11.9-5.8,21,21,0,0,0,6.9-9.2h45.6c-2.9,13-8.2,23.6-16,32a68.3,68.3,0,0,1-28.2,18.3A103.2,103.2,0,0,1,1378.7,503Zm-39.3-107.6H1415a38.4,38.4,0,0,0-4.4-16.7,32.1,32.1,0,0,0-12.3-12.5c-5.3-3.2-12.2-4.8-20.6-4.8s-15.3,1.6-20.9,4.9a32.7,32.7,0,0,0-12.6,12.7A43.6,43.6,0,0,0,1339.4,395.4Z" fill="#0e0e4f"/><path d="M394.6,192.9l-84.4,378a12.5,12.5,0,0,1-3.8,6.3l-41,36.1-31.2,27a11.8,11.8,0,0,1-18.8-4.6l-15.2-38.3-20.1-50.8a11.5,11.5,0,0,1-.5-7.1l84.9-352a11.7,11.7,0,0,1,11.5-9H383.1A11.8,11.8,0,0,1,394.6,192.9Z" fill="url(#linear-gradient)"/><path d="M412.7,557.7l65.8-13.1-23.6,52.9L438,635.2a11.8,11.8,0,0,1-18.9,3.8l-30-28.4L346.8,571Z" fill="#e5ded5"/><path d="M394.7,187.6l83.8,356.9L346.8,571,264.5,192.7A11.7,11.7,0,0,1,276,178.5H383.2A11.7,11.7,0,0,1,394.7,187.6Z" fill="#11076e"/><path d="M423.8,613.7l26.1-5.2-9.4,21-2.6,5.7A11.8,11.8,0,0,1,419,639l-4.6-4.3L397.7,619Z" fill="#11076e"/></g></svg>