<svg xmlns="http://www.w3.org/2000/svg" xmlns:xlink="http://www.w3.org/1999/xlink" viewBox="0 0 1639.1 823.2"><defs><linearGradient id="linear-gradient" x1="139.47" y1="437.47" x2="426.27" y2="369.67" gradientUnits="userSpaceOnUse"><stop offset="0.03" stop-color="#e9e0d6"/><stop offset="0.21" stop-color="#e3d9cf"/><stop offset="0.48" stop-color="#d2c7bd"/><stop offset="0.78" stop-color="#b6a99f"/><stop offset="0.79" stop-color="#b5a89e"/></linearGradient></defs><g id="Secondary_Logo" data-name="Secondary Logo"><path d="M616.2,503.5a83.3,83.3,0,0,1-22.9-3.2,58.5,58.5,0,0,1-19.7-9.7,47.2,47.2,0,0,1-13.5-16.5c-3.3-6.6-4.9-14.3-4.9-23.1,0-11.9,2.4-21.4,7.2-28.6a47.1,47.1,0,0,1,19.5-16.3,92.4,92.4,0,0,1,28.2-7.6,274.2,274.2,0,0,1,33.2-2h25.1a40,40,0,0,0-3.5-17A25.8,25.8,0,0,0,654.5,368c-4.6-2.8-10.5-4.2-17.8-4.2a49.8,49.8,0,0,0-13.4,1.8,33.4,33.4,0,0,0-10.7,5.2,14.9,14.9,0,0,0-5.6,8.5H560.1a55.7,55.7,0,0,1,9.3-24.9,58.8,58.8,0,0,1,18.1-17,83.9,83.9,0,0,1,23.9-9.7,114.4,114.4,0,0,1,26.9-3.1c25.3,0,44.1,7.2,56.2,21.6s18.1,34.8,18.1,61.2v93.8H671l-.6-22.5c-5.5,7.7-11.8,13.3-18.7,16.8a59.4,59.4,0,0,1-20,6.6A115.7,115.7,0,0,1,616.2,503.5Zm10.6-36.7a47.6,47.6,0,0,0,21.1-4.6,39.3,39.3,0,0,0,15.2-12.5,30.7,30.7,0,0,0,5.6-17.9v-4.3H637c-4.6,0-9.1.3-13.3.7a48.4,48.4,0,0,0-11.6,2.5,16.6,16.6,0,0,0-8.1,5.8q-3,3.9-3,10.5a17.7,17.7,0,0,0,3.5,11.1,21.7,21.7,0,0,0,9.4,6.6A38.8,38.8,0,0,0,626.8,466.8Z" fill="#e5ded5"/><path d="M810,503.5a121.9,121.9,0,0,1-25.1-2.7,75.3,75.3,0,0,1-23.8-9.1,56.7,56.7,0,0,1-18.4-17.5c-5.1-7.3-8.4-16.5-10-27.5h46.9a22.3,22.3,0,0,0,7.1,10.2,31.7,31.7,0,0,0,11.9,6.3,49.4,49.4,0,0,0,13.7,2,56.2,56.2,0,0,0,9.2-.7,26.9,26.9,0,0,0,8.6-2.6,18.1,18.1,0,0,0,6.3-5.1,13.6,13.6,0,0,0,2.3-8.1c0-3.6-1.1-6.3-3.3-8.3a24.1,24.1,0,0,0-9.2-4.8c-4-1.2-8.5-2.3-13.6-3.4l-29-6.6A92,92,0,0,1,756.8,415a52.2,52.2,0,0,1-8.2-7.3,33.6,33.6,0,0,1-5.9-8.9,51.3,51.3,0,0,1-3.7-10.4,48.2,48.2,0,0,1-1.3-11.7c0-9.5,2-17.5,6.1-24.3a48.9,48.9,0,0,1,16.3-16.3,76.1,76.1,0,0,1,22.8-9.1,122.8,122.8,0,0,1,25.8-2.8,93,93,0,0,1,33,5.8,59.8,59.8,0,0,1,25.1,17.8c6.6,8.1,10.6,18.5,12.2,31.2H834.7c-.8-4.8-3.8-8.7-8.9-11.7s-11.3-4.5-18.8-4.5a64.8,64.8,0,0,0-8.4.7,28.4,28.4,0,0,0-8.1,2.3,15.7,15.7,0,0,0-5.9,4.5c-1.6,1.8-2.3,4.3-2.3,7.4a11.3,11.3,0,0,0,2.1,6.6,15.2,15.2,0,0,0,6.3,4.9,54.2,54.2,0,0,0,10,3.7c7.5,1.7,15.1,3.3,22.7,4.8s14.3,2.9,20.3,4.4a69.1,69.1,0,0,1,19.9,7.6,42.7,42.7,0,0,1,14.9,14.4c3.8,6,5.8,13.9,5.8,23.6s-2.2,20.1-6.6,27.2a48.1,48.1,0,0,1-17.7,17,79.2,79.2,0,0,1-24.1,8.9A127.3,127.3,0,0,1,810,503.5Z" fill="#e5ded5"/><path d="M904.7,566.2v-239H948l2.3,21.8a63.5,63.5,0,0,1,24.2-18.8,74.7,74.7,0,0,1,30.2-6c17.2,0,31.4,4,42.6,11.9a72.5,72.5,0,0,1,25.3,32.2c5.6,13.5,8.4,28.7,8.4,45.4s-2.9,32.5-8.8,46a70.7,70.7,0,0,1-26.2,32c-11.7,7.9-26.2,11.8-43.6,11.8a80.3,80.3,0,0,1-21.1-2.7,67.5,67.5,0,0,1-17.5-7.1,57.5,57.5,0,0,1-12.9-10v82.5Zm89.8-104.3c10.4,0,18.5-2.3,24.4-7a36.5,36.5,0,0,0,12.6-17.6,69.9,69.9,0,0,0,3.6-22.3,72,72,0,0,0-3.9-23.8,38.4,38.4,0,0,0-13.1-18c-6-4.5-14.2-6.7-24.6-6.7s-17,2.2-23.4,6.7a43.2,43.2,0,0,0-14.5,17.7,56.2,56.2,0,0,0-5,23.4,57.8,57.8,0,0,0,4.8,23.5,40.6,40.6,0,0,0,14.5,17.5Q979.7,461.9,994.5,461.9Z" fill="#e5ded5"/><path d="M1127.2,309.7c-8.6,0-15.5-2.6-20.8-7.8s-7.9-11.8-7.9-19.9,2.7-15.5,8.2-20.8,12.5-7.9,20.8-7.9a28.4,28.4,0,0,1,20,7.7c5.6,5.2,8.4,12.1,8.4,20.6s-2.7,15.2-8.1,20.3S1135.6,309.7,1127.2,309.7Zm-23.1,191.5v-174h46.2v174Z" fill="#e5ded5"/><path d="M1180.4,501.2v-174h41.5l3,20.8a49.5,49.5,0,0,1,14.9-15,52.4,52.4,0,0,1,17.1-7,92.1,92.1,0,0,1,18.2-1.8l7.9.2,5.3.2v44.5h-10.9c-10.3,0-19.4,1.8-27.1,5.3a36.6,36.6,0,0,0-17.6,16.5c-4.1,7.5-6.1,17.1-6.1,28.7v81.6Z" fill="#e5ded5"/><path d="M1379.7,503.5c-18.2,0-33.8-3.7-46.5-10.9a73.1,73.1,0,0,1-29.4-30.9c-6.8-13.3-10.2-28.9-10.2-46.7s3.5-33.8,10.5-47.4a79,79,0,0,1,29.9-31.8c12.9-7.7,28.1-11.6,45.7-11.6,13.2,0,24.8,2.2,34.9,6.6a72.5,72.5,0,0,1,25.4,18.5,78,78,0,0,1,15.5,27.6,102.8,102.8,0,0,1,4.8,33.8,84.5,84.5,0,0,1-.4,8.9,51.1,51.1,0,0,1-1.3,8.6H1339.5a45.1,45.1,0,0,0,5.6,18.2,33.2,33.2,0,0,0,13,13q8.4,4.8,21,4.8a60.9,60.9,0,0,0,15.2-1.8,31.8,31.8,0,0,0,11.8-5.8,22.3,22.3,0,0,0,7-9.3h45.5c-2.8,13-8.2,23.7-16,32.1a70.4,70.4,0,0,1-28.2,18.3A105.7,105.7,0,0,1,1379.7,503.5Zm-39.3-107.6H1416a38.4,38.4,0,0,0-4.4-16.7,32.1,32.1,0,0,0-12.2-12.6c-5.4-3.1-12.3-4.7-20.7-4.7s-15.3,1.6-20.9,4.9a32.7,32.7,0,0,0-12.6,12.7A43.1,43.1,0,0,0,1340.4,395.9Z" fill="#e5ded5"/><path d="M395.9,192.6,311.3,571a11,11,0,0,1-3.7,6.3l-41.1,36.2-31.2,27a11.8,11.8,0,0,1-18.8-4.6l-15.2-38.4-20.2-50.8a11.5,11.5,0,0,1-.5-7.1l85-352.4a11.7,11.7,0,0,1,11.5-9H384.3A11.9,11.9,0,0,1,395.9,192.6Z" fill="url(#linear-gradient)"/><path d="M414,557.8l65.9-13.1-23.7,53-16.9,37.7a11.8,11.8,0,0,1-18.9,3.8l-30.1-28.4L348,571.1Z" fill="#e5ded5"/><path d="M396,187.3l83.9,357.3L348,571.1,265.6,192.4a11.7,11.7,0,0,1,11.5-14.2H384.5A11.9,11.9,0,0,1,396,187.3Z" fill="#3c43b0"/><path d="M425.1,613.9l26.1-5.2-9.4,21-2.6,5.7a11.8,11.8,0,0,1-18.9,3.8l-4.6-4.4-16.8-15.7Z" fill="#3c43b0"/></g></svg>